<mxfile host="Electron" modified="2025-05-04T00:00:00.000Z" agent="Mozilla/5.0 (Macintosh; Intel Mac OS X 10_15_7) AppleWebKit/537.36 (KHTML, like Gecko) draw.io/22.0.3 Chrome/114.0.5735.289 Electron/25.8.4 Safari/537.36" etag="user-role-workflow" version="22.0.3" type="device">
  <diagram id="user_role_workflow" name="ユーザーロール別業務フロー">
    <mxGraphModel dx="1186" dy="775" grid="1" gridSize="10" guides="1" tooltips="1" connect="1" arrows="1" fold="1" page="1" pageScale="1" pageWidth="1169" pageHeight="827" math="0" shadow="0">
      <root>
        <mxCell id="0" />
        <mxCell id="1" parent="0" />
        <mxCell id="title" value="SES業務システム ユーザーロール別業務フロー" style="text;html=1;strokeColor=none;fillColor=none;align=center;verticalAlign=middle;whiteSpace=wrap;rounded=0;fontSize=24;fontStyle=1" vertex="1" parent="1">
          <mxGeometry x="220" y="20" width="650" height="40" as="geometry" />
        </mxCell>

        <!-- 営業担当フロー -->
        <mxCell id="sales_flow" value="営業担当の業務フロー" style="swimlane;childLayout=stackLayout;resizeParent=1;resizeParentMax=0;horizontal=1;startSize=30;horizontalStack=0;fillColor=#dae8fc;strokeColor=#6c8ebf;" vertex="1" parent="1">
          <mxGeometry x="40" y="80" width="1080" height="180" as="geometry" />
        </mxCell>
        <mxCell id="sales_lane" value="営業担当" style="swimlane;startSize=30;horizontal=0;fillColor=#dae8fc;strokeColor=#6c8ebf;" vertex="1" parent="sales_flow">
          <mxGeometry y="30" width="1080" height="150" as="geometry" />
        </mxCell>

        <!-- 営業担当の業務フロー -->
        <mxCell id="sales_login" value="システムログイン" style="rounded=1;whiteSpace=wrap;html=1;fillColor=#dae8fc;strokeColor=#6c8ebf;" vertex="1" parent="sales_lane">
          <mxGeometry x="30" y="50" width="110" height="50" as="geometry" />
        </mxCell>
        <mxCell id="sales_case_register" value="案件情報登録" style="rounded=1;whiteSpace=wrap;html=1;fillColor=#dae8fc;strokeColor=#6c8ebf;" vertex="1" parent="sales_lane">
          <mxGeometry x="180" y="50" width="110" height="50" as="geometry" />
        </mxCell>
        <mxCell id="sales_matching" value="技術者マッチング" style="rounded=1;whiteSpace=wrap;html=1;fillColor=#dae8fc;strokeColor=#6c8ebf;" vertex="1" parent="sales_lane">
          <mxGeometry x="330" y="50" width="110" height="50" as="geometry" />
        </mxCell>
        <mxCell id="sales_proposal" value="提案書作成・面談調整" style="rounded=1;whiteSpace=wrap;html=1;fillColor=#dae8fc;strokeColor=#6c8ebf;" vertex="1" parent="sales_lane">
          <mxGeometry x="480" y="50" width="110" height="50" as="geometry" />
        </mxCell>
        <mxCell id="sales_contract" value="契約締結" style="rounded=1;whiteSpace=wrap;html=1;fillColor=#dae8fc;strokeColor=#6c8ebf;" vertex="1" parent="sales_lane">
          <mxGeometry x="630" y="50" width="110" height="50" as="geometry" />
        </mxCell>
        <mxCell id="sales_timesheet" value="工数実績確認" style="rounded=1;whiteSpace=wrap;html=1;fillColor=#dae8fc;strokeColor=#6c8ebf;" vertex="1" parent="sales_lane">
          <mxGeometry x="780" y="50" width="110" height="50" as="geometry" />
        </mxCell>
        <mxCell id="sales_report" value="レポート・KPI確認" style="rounded=1;whiteSpace=wrap;html=1;fillColor=#dae8fc;strokeColor=#6c8ebf;" vertex="1" parent="sales_lane">
          <mxGeometry x="930" y="50" width="110" height="50" as="geometry" />
        </mxCell>

        <!-- 営業担当フローの接続 -->
        <mxCell id="sales_flow_1" value="" style="endArrow=classic;html=1;rounded=0;exitX=1;exitY=0.5;exitDx=0;exitDy=0;entryX=0;entryY=0.5;entryDx=0;entryDy=0;" edge="1" parent="sales_lane" source="sales_login" target="sales_case_register">
          <mxGeometry width="50" height="50" relative="1" as="geometry">
            <mxPoint x="140" y="160" as="sourcePoint" />
            <mxPoint x="190" y="110" as="targetPoint" />
          </mxGeometry>
        </mxCell>
        <mxCell id="sales_flow_2" value="" style="endArrow=classic;html=1;rounded=0;exitX=1;exitY=0.5;exitDx=0;exitDy=0;entryX=0;entryY=0.5;entryDx=0;entryDy=0;" edge="1" parent="sales_lane" source="sales_case_register" target="sales_matching">
          <mxGeometry width="50" height="50" relative="1" as="geometry">
            <mxPoint x="290" y="160" as="sourcePoint" />
            <mxPoint x="340" y="110" as="targetPoint" />
          </mxGeometry>
        </mxCell>
        <mxCell id="sales_flow_3" value="" style="endArrow=classic;html=1;rounded=0;exitX=1;exitY=0.5;exitDx=0;exitDy=0;entryX=0;entryY=0.5;entryDx=0;entryDy=0;" edge="1" parent="sales_lane" source="sales_matching" target="sales_proposal">
          <mxGeometry width="50" height="50" relative="1" as="geometry">
            <mxPoint x="440" y="160" as="sourcePoint" />
            <mxPoint x="490" y="110" as="targetPoint" />
          </mxGeometry>
        </mxCell>
        <mxCell id="sales_flow_4" value="" style="endArrow=classic;html=1;rounded=0;exitX=1;exitY=0.5;exitDx=0;exitDy=0;entryX=0;entryY=0.5;entryDx=0;entryDy=0;" edge="1" parent="sales_lane" source="sales_proposal" target="sales_contract">
          <mxGeometry width="50" height="50" relative="1" as="geometry">
            <mxPoint x="590" y="160" as="sourcePoint" />
            <mxPoint x="640" y="110" as="targetPoint" />
          </mxGeometry>
        </mxCell>
        <mxCell id="sales_flow_5" value="" style="endArrow=classic;html=1;rounded=0;exitX=1;exitY=0.5;exitDx=0;exitDy=0;entryX=0;entryY=0.5;entryDx=0;entryDy=0;" edge="1" parent="sales_lane" source="sales_contract" target="sales_timesheet">
          <mxGeometry width="50" height="50" relative="1" as="geometry">
            <mxPoint x="740" y="160" as="sourcePoint" />
            <mxPoint x="790" y="110" as="targetPoint" />
          </mxGeometry>
        </mxCell>
        <mxCell id="sales_flow_6" value="" style="endArrow=classic;html=1;rounded=0;exitX=1;exitY=0.5;exitDx=0;exitDy=0;entryX=0;entryY=0.5;entryDx=0;entryDy=0;" edge="1" parent="sales_lane" source="sales_timesheet" target="sales_report">
          <mxGeometry width="50" height="50" relative="1" as="geometry">
            <mxPoint x="890" y="160" as="sourcePoint" />
            <mxPoint x="940" y="110" as="targetPoint" />
          </mxGeometry>
        </mxCell>

        <!-- 人事/採用担当フロー -->
        <mxCell id="hr_flow" value="人事/採用担当の業務フロー" style="swimlane;childLayout=stackLayout;resizeParent=1;resizeParentMax=0;horizontal=1;startSize=30;horizontalStack=0;fillColor=#fff2cc;strokeColor=#d6b656;" vertex="1" parent="1">
          <mxGeometry x="40" y="280" width="1080" height="180" as="geometry" />
        </mxCell>
        <mxCell id="hr_lane" value="人事/採用担当" style="swimlane;startSize=30;horizontal=0;fillColor=#fff2cc;strokeColor=#d6b656;" vertex="1" parent="hr_flow">
          <mxGeometry y="30" width="1080" height="150" as="geometry" />
        </mxCell>

        <!-- 人事/採用担当の業務フロー -->
        <mxCell id="hr_login" value="システムログイン" style="rounded=1;whiteSpace=wrap;html=1;fillColor=#fff2cc;strokeColor=#d6b656;" vertex="1" parent="hr_lane">
          <mxGeometry x="30" y="50" width="110" height="50" as="geometry" />
        </mxCell>
        <mxCell id="hr_engineer_register" value="技術者登録" style="rounded=1;whiteSpace=wrap;html=1;fillColor=#fff2cc;strokeColor=#d6b656;" vertex="1" parent="hr_lane">
          <mxGeometry x="180" y="50" width="110" height="50" as="geometry" />
        </mxCell>
        <mxCell id="hr_skill_sheet" value="スキルシート管理" style="rounded=1;whiteSpace=wrap;html=1;fillColor=#fff2cc;strokeColor=#d6b656;" vertex="1" parent="hr_lane">
          <mxGeometry x="330" y="50" width="110" height="50" as="geometry" />
        </mxCell>
        <mxCell id="hr_matching_support" value="マッチング対応" style="rounded=1;whiteSpace=wrap;html=1;fillColor=#fff2cc;strokeColor=#d6b656;" vertex="1" parent="hr_lane">
          <mxGeometry x="480" y="50" width="110" height="50" as="geometry" />
        </mxCell>
        <mxCell id="hr_assignment" value="アサイン調整" style="rounded=1;whiteSpace=wrap;html=1;fillColor=#fff2cc;strokeColor=#d6b656;" vertex="1" parent="hr_lane">
          <mxGeometry x="630" y="50" width="110" height="50" as="geometry" />
        </mxCell>
        <mxCell id="hr_resource_planning" value="リソース計画" style="rounded=1;whiteSpace=wrap;html=1;fillColor=#fff2cc;strokeColor=#d6b656;" vertex="1" parent="hr_lane">
          <mxGeometry x="780" y="50" width="110" height="50" as="geometry" />
        </mxCell>
        <mxCell id="hr_report" value="レポート確認" style="rounded=1;whiteSpace=wrap;html=1;fillColor=#fff2cc;strokeColor=#d6b656;" vertex="1" parent="hr_lane">
          <mxGeometry x="930" y="50" width="110" height="50" as="geometry" />
        </mxCell>

        <!-- 人事/採用担当フローの接続 -->
        <mxCell id="hr_flow_1" value="" style="endArrow=classic;html=1;rounded=0;exitX=1;exitY=0.5;exitDx=0;exitDy=0;entryX=0;entryY=0.5;entryDx=0;entryDy=0;" edge="1" parent="hr_lane" source="hr_login" target="hr_engineer_register">
          <mxGeometry width="50" height="50" relative="1" as="geometry">
            <mxPoint x="140" y="160" as="sourcePoint" />
            <mxPoint x="190" y="110" as="targetPoint" />
          </mxGeometry>
        </mxCell>
        <mxCell id="hr_flow_2" value="" style="endArrow=classic;html=1;rounded=0;exitX=1;exitY=0.5;exitDx=0;exitDy=0;entryX=0;entryY=0.5;entryDx=0;entryDy=0;" edge="1" parent="hr_lane" source="hr_engineer_register" target="hr_skill_sheet">
          <mxGeometry width="50" height="50" relative="1" as="geometry">
            <mxPoint x="290" y="160" as="sourcePoint" />
            <mxPoint x="340" y="110" as="targetPoint" />
          </mxGeometry>
        </mxCell>
        <mxCell id="hr_flow_3" value="" style="endArrow=classic;html=1;rounded=0;exitX=1;exitY=0.5;exitDx=0;exitDy=0;entryX=0;entryY=0.5;entryDx=0;entryDy=0;" edge="1" parent="hr_lane" source="hr_skill_sheet" target="hr_matching_support">
          <mxGeometry width="50" height="50" relative="1" as="geometry">
            <mxPoint x="440" y="160" as="sourcePoint" />
            <mxPoint x="490" y="110" as="targetPoint" />
          </mxGeometry>
        </mxCell>
        <mxCell id="hr_flow_4" value="" style="endArrow=classic;html=1;rounded=0;exitX=1;exitY=0.5;exitDx=0;exitDy=0;entryX=0;entryY=0.5;entryDx=0;entryDy=0;" edge="1" parent="hr_lane" source="hr_matching_support" target="hr_assignment">
          <mxGeometry width="50" height="50" relative="1" as="geometry">
            <mxPoint x="590" y="160" as="sourcePoint" />
            <mxPoint x="640" y="110" as="targetPoint" />
          </mxGeometry>
        </mxCell>
        <mxCell id="hr_flow_5" value="" style="endArrow=classic;html=1;rounded=0;exitX=1;exitY=0.5;exitDx=0;exitDy=0;entryX=0;entryY=0.5;entryDx=0;entryDy=0;" edge="1" parent="hr_lane" source="hr_assignment" target="hr_resource_planning">
          <mxGeometry width="50" height="50" relative="1" as="geometry">
            <mxPoint x="740" y="160" as="sourcePoint" />
            <mxPoint x="790" y="110" as="targetPoint" />
          </mxGeometry>
        </mxCell>
        <mxCell id="hr_flow_6" value="" style="endArrow=classic;html=1;rounded=0;exitX=1;exitY=0.5;exitDx=0;exitDy=0;entryX=0;entryY=0.5;entryDx=0;entryDy=0;" edge="1" parent="hr_lane" source="hr_resource_planning" target="hr_report">
          <mxGeometry width="50" height="50" relative="1" as="geometry">
            <mxPoint x="890" y="160" as="sourcePoint" />
            <mxPoint x="940" y="110" as="targetPoint" />
          </mxGeometry>
        </mxCell>

        <!-- 技術者フロー -->
        <mxCell id="engineer_flow" value="技術者(社員・協力会社)の業務フロー" style="swimlane;childLayout=stackLayout;resizeParent=1;resizeParentMax=0;horizontal=1;startSize=30;horizontalStack=0;fillColor=#d5e8d4;strokeColor=#82b366;" vertex="1" parent="1">
          <mxGeometry x="40" y="480" width="1080" height="180" as="geometry" />
        </mxCell>
        <mxCell id="engineer_lane" value="技術者" style="swimlane;startSize=30;horizontal=0;fillColor=#d5e8d4;strokeColor=#82b366;" vertex="1" parent="engineer_flow">
          <mxGeometry y="30" width="1080" height="150" as="geometry" />
        </mxCell>

        <!-- 技術者の業務フロー -->
        <mxCell id="engineer_login" value="システムログイン" style="rounded=1;whiteSpace=wrap;html=1;fillColor=#d5e8d4;strokeColor=#82b366;" vertex="1" parent="engineer_lane">
          <mxGeometry x="30" y="50" width="110" height="50" as="geometry" />
        </mxCell>
        <mxCell id="engineer_profile" value="プロフィール更新" style="rounded=1;whiteSpace=wrap;html=1;fillColor=#d5e8d4;strokeColor=#82b366;" vertex="1" parent="engineer_lane">
          <mxGeometry x="180" y="50" width="110" height="50" as="geometry" />
        </mxCell>
        <mxCell id="engineer_skill" value="スキル情報登録" style="rounded=1;whiteSpace=wrap;html=1;fillColor=#d5e8d4;strokeColor=#82b366;" vertex="1" parent="engineer_lane">
          <mxGeometry x="330" y="50" width="110" height="50" as="geometry" />
        </mxCell>
        <mxCell id="engineer_proposal" value="案件提案確認" style="rounded=1;whiteSpace=wrap;html=1;fillColor=#d5e8d4;strokeColor=#82b366;" vertex="1" parent="engineer_lane">
          <mxGeometry x="480" y="50" width="110" height="50" as="geometry" />
        </mxCell>
        <mxCell id="engineer_timesheet" value="日次勤怠入力" style="rounded=1;whiteSpace=wrap;html=1;fillColor=#d5e8d4;strokeColor=#82b366;" vertex="1" parent="engineer_lane">
          <mxGeometry x="630" y="50" width="110" height="50" as="geometry" />
        </mxCell>
        <mxCell id="engineer_monthly" value="月次タイムシート確認" style="rounded=1;whiteSpace=wrap;html=1;fillColor=#d5e8d4;strokeColor=#82b366;" vertex="1" parent="engineer_lane">
          <mxGeometry x="780" y="50" width="110" height="50" as="geometry" />
        </mxCell>
        <mxCell id="engineer_submit" value="承認依頼送信" style="rounded=1;whiteSpace=wrap;html=1;fillColor=#d5e8d4;strokeColor=#82b366;" vertex="1" parent="engineer_lane">
          <mxGeometry x="930" y="50" width="110" height="50" as="geometry" />
        </mxCell>

        <!-- 技術者フローの接続 -->
        <mxCell id="engineer_flow_1" value="" style="endArrow=classic;html=1;rounded=0;exitX=1;exitY=0.5;exitDx=0;exitDy=0;entryX=0;entryY=0.5;entryDx=0;entryDy=0;" edge="1" parent="engineer_lane" source="engineer_login" target="engineer_profile">
          <mxGeometry width="50" height="50" relative="1" as="geometry">
            <mxPoint x="140" y="160" as="sourcePoint" />
            <mxPoint x="190" y="110" as="targetPoint" />
          </mxGeometry>
        </mxCell>
        <mxCell id="engineer_flow_2" value="" style="endArrow=classic;html=1;rounded=0;exitX=1;exitY=0.5;exitDx=0;exitDy=0;entryX=0;entryY=0.5;entryDx=0;entryDy=0;" edge="1" parent="engineer_lane" source="engineer_profile" target="engineer_skill">
          <mxGeometry width="50" height="50" relative="1" as="geometry">
            <mxPoint x="290" y="160" as="sourcePoint" />
            <mxPoint x="340" y="110" as="targetPoint" />
          </mxGeometry>
        </mxCell>
        <mxCell id="engineer_flow_3" value="" style="endArrow=classic;html=1;rounded=0;exitX=1;exitY=0.5;exitDx=0;exitDy=0;entryX=0;entryY=0.5;entryDx=0;entryDy=0;" edge="1" parent="engineer_lane" source="engineer_skill" target="engineer_proposal">
          <mxGeometry width="50" height="50" relative="1" as="geometry">
            <mxPoint x="440" y="160" as="sourcePoint" />
            <mxPoint x="490" y="110" as="targetPoint" />
          </mxGeometry>
        </mxCell>
        <mxCell id="engineer_flow_4" value="" style="endArrow=classic;html=1;rounded=0;exitX=1;exitY=0.5;exitDx=0;exitDy=0;entryX=0;entryY=0.5;entryDx=0;entryDy=0;" edge="1" parent="engineer_lane" source="engineer_proposal" target="engineer_timesheet">
          <mxGeometry width="50" height="50" relative="1" as="geometry">
            <mxPoint x="590" y="160" as="sourcePoint" />
            <mxPoint x="640" y="110" as="targetPoint" />
          </mxGeometry>
        </mxCell>
        <mxCell id="engineer_flow_5" value="" style="endArrow=classic;html=1;rounded=0;exitX=1;exitY=0.5;exitDx=0;exitDy=0;entryX=0;entryY=0.5;entryDx=0;entryDy=0;" edge="1" parent="engineer_lane" source="engineer_timesheet" target="engineer_monthly">
          <mxGeometry width="50" height="50" relative="1" as="geometry">
            <mxPoint x="740" y="160" as="sourcePoint" />
            <mxPoint x="790" y="110" as="targetPoint" />
          </mxGeometry>
        </mxCell>
        <mxCell id="engineer_flow_6" value="" style="endArrow=classic;html=1;rounded=0;exitX=1;exitY=0.5;exitDx=0;exitDy=0;entryX=0;entryY=0.5;entryDx=0;entryDy=0;" edge="1" parent="engineer_lane" source="engineer_monthly" target="engineer_submit">
          <mxGeometry width="50" height="50" relative="1" as="geometry">
            <mxPoint x="890" y="160" as="sourcePoint" />
            <mxPoint x="940" y="110" as="targetPoint" />
          </mxGeometry>
        </mxCell>
      </root>
    </mxGraphModel>
  </diagram>
  <diagram id="user_role_workflow_2" name="ユーザーロール別業務フロー（続き）">
    <mxGraphModel dx="1186" dy="775" grid="1" gridSize="10" guides="1" tooltips="1" connect="1" arrows="1" fold="1" page="1" pageScale="1" pageWidth="1169" pageHeight="827" math="0" shadow="0">
      <root>
        <mxCell id="0" />
        <mxCell id="1" parent="0" />
        <mxCell id="title2" value="SES業務システム ユーザーロール別業務フロー（続き）" style="text;html=1;strokeColor=none;fillColor=none;align=center;verticalAlign=middle;whiteSpace=wrap;rounded=0;fontSize=24;fontStyle=1" vertex="1" parent="1">
          <mxGeometry x="180" y="20" width="650" height="40" as="geometry" />
        </mxCell>

        <!-- PM/現場責任者フロー -->
        <mxCell id="pm_flow" value="PM/現場責任者の業務フロー" style="swimlane;childLayout=stackLayout;resizeParent=1;resizeParentMax=0;horizontal=1;startSize=30;horizontalStack=0;fillColor=#e1d5e7;strokeColor=#9673a6;" vertex="1" parent="1">
          <mxGeometry x="40" y="80" width="1080" height="180" as="geometry" />
        </mxCell>
        <mxCell id="pm_lane" value="PM/現場責任者" style="swimlane;startSize=30;horizontal=0;fillColor=#e1d5e7;strokeColor=#9673a6;" vertex="1" parent="pm_flow">
          <mxGeometry y="30" width="1080" height="150" as="geometry" />
        </mxCell>

        <!-- PM/現場責任者の業務フロー -->
        <mxCell id="pm_login" value="システムログイン" style="rounded=1;whiteSpace=wrap;html=1;fillColor=#e1d5e7;strokeColor=#9673a6;" vertex="1" parent="pm_lane">
          <mxGeometry x="30" y="50" width="110" height="50" as="geometry" />
        </mxCell>
        <mxCell id="pm_project_view" value="担当案件確認" style="rounded=1;whiteSpace=wrap;html=1;fillColor=#e1d5e7;strokeColor=#9673a6;" vertex="1" parent="pm_lane">
          <mxGeometry x="180" y="50" width="110" height="50" as="geometry" />
        </mxCell>
        <mxCell id="pm_engineer_view" value="技術者確認" style="rounded=1;whiteSpace=wrap;html=1;fillColor=#e1d5e7;strokeColor=#9673a6;" vertex="1" parent="pm_lane">
          <mxGeometry x="330" y="50" width="110" height="50" as="geometry" />
        </mxCell>
        <mxCell id="pm_timesheet_approval" value="勤怠内容確認" style="rounded=1;whiteSpace=wrap;html=1;fillColor=#e1d5e7;strokeColor=#9673a6;" vertex="1" parent="pm_lane">
          <mxGeometry x="480" y="50" width="110" height="50" as="geometry" />
        </mxCell>
        <mxCell id="pm_approval" value="PM承認" style="rounded=1;whiteSpace=wrap;html=1;fillColor=#e1d5e7;strokeColor=#9673a6;" vertex="1" parent="pm_lane">
          <mxGeometry x="630" y="50" width="110" height="50" as="geometry" />
        </mxCell>
        <mxCell id="pm_progress" value="進捗報告" style="rounded=1;whiteSpace=wrap;html=1;fillColor=#e1d5e7;strokeColor=#9673a6;" vertex="1" parent="pm_lane">
          <mxGeometry x="780" y="50" width="110" height="50" as="geometry" />
        </mxCell>
        <mxCell id="pm_report" value="レポート確認" style="rounded=1;whiteSpace=wrap;html=1;fillColor=#e1d5e7;strokeColor=#9673a6;" vertex="1" parent="pm_lane">
          <mxGeometry x="930" y="50" width="110" height="50" as="geometry" />
        </mxCell>

        <!-- PM/現場責任者フローの接続 -->
        <mxCell id="pm_flow_1" value="" style="endArrow=classic;html=1;rounded=0;exitX=1;exitY=0.5;exitDx=0;exitDy=0;entryX=0;entryY=0.5;entryDx=0;entryDy=0;" edge="1" parent="pm_lane" source="pm_login" target="pm_project_view">
          <mxGeometry width="50" height="50" relative="1" as="geometry">
            <mxPoint x="140" y="160" as="sourcePoint" />
            <mxPoint x="190" y="110" as="targetPoint" />
          </mxGeometry>
        </mxCell>
        <mxCell id="pm_flow_2" value="" style="endArrow=classic;html=1;rounded=0;exitX=1;exitY=0.5;exitDx=0;exitDy=0;entryX=0;entryY=0.5;entryDx=0;entryDy=0;" edge="1" parent="pm_lane" source="pm_project_view" target="pm_engineer_view">
          <mxGeometry width="50" height="50" relative="1" as="geometry">
            <mxPoint x="290" y="160" as="sourcePoint" />
            <mxPoint x="340" y="110" as="targetPoint" />
          </mxGeometry>
        </mxCell>
        <mxCell id="pm_flow_3" value="" style="endArrow=classic;html=1;rounded=0;exitX=1;exitY=0.5;exitDx=0;exitDy=0;entryX=0;entryY=0.5;entryDx=0;entryDy=0;" edge="1" parent="pm_lane" source="pm_engineer_view" target="pm_timesheet_approval">
          <mxGeometry width="50" height="50" relative="1" as="geometry">
            <mxPoint x="440" y="160" as="sourcePoint" />
            <mxPoint x="490" y="110" as="targetPoint" />
          </mxGeometry>
        </mxCell>
        <mxCell id="pm_flow_4" value="" style="endArrow=classic;html=1;rounded=0;exitX=1;exitY=0.5;exitDx=0;exitDy=0;entryX=0;entryY=0.5;entryDx=0;entryDy=0;" edge="1" parent="pm_lane" source="pm_timesheet_approval" target="pm_approval">
          <mxGeometry width="50" height="50" relative="1" as="geometry">
            <mxPoint x="590" y="160" as="sourcePoint" />
            <mxPoint x="640" y="110" as="targetPoint" />
          </mxGeometry>
        </mxCell>
        <mxCell id="pm_flow_5" value="" style="endArrow=classic;html=1;rounded=0;exitX=1;exitY=0.5;exitDx=0;exitDy=0;entryX=0;entryY=0.5;entryDx=0;entryDy=0;" edge="1" parent="pm_lane" source="pm_approval" target="pm_progress">
          <mxGeometry width="50" height="50" relative="1" as="geometry">
            <mxPoint x="740" y="160" as="sourcePoint" />
            <mxPoint x="790" y="110" as="targetPoint" />
          </mxGeometry>
        </mxCell>
        <mxCell id="pm_flow_6" value="" style="endArrow=classic;html=1;rounded=0;exitX=1;exitY=0.5;exitDx=0;exitDy=0;entryX=0;entryY=0.5;entryDx=0;entryDy=0;" edge="1" parent="pm_lane" source="pm_progress" target="pm_report">
          <mxGeometry width="50" height="50" relative="1" as="geometry">
            <mxPoint x="890" y="160" as="sourcePoint" />
            <mxPoint x="940" y="110" as="targetPoint" />
          </mxGeometry>
        </mxCell>

        <!-- 経理担当フロー -->
        <mxCell id="accounting_flow" value="経理担当の業務フロー" style="swimlane;childLayout=stackLayout;resizeParent=1;resizeParentMax=0;horizontal=1;startSize=30;horizontalStack=0;fillColor=#f8cecc;strokeColor=#b85450;" vertex="1" parent="1">
          <mxGeometry x="40" y="280" width="1080" height="180" as="geometry" />
        </mxCell>
        <mxCell id="accounting_lane" value="経理担当" style="swimlane;startSize=30;horizontal=0;fillColor=#f8cecc;strokeColor=#b85450;" vertex="1" parent="accounting_flow">
          <mxGeometry y="30" width="1080" height="150" as="geometry" />
        </mxCell>

        <!-- 経理担当の業務フロー -->
        <mxCell id="accounting_login" value="システムログイン" style="rounded=1;whiteSpace=wrap;html=1;fillColor=#f8cecc;strokeColor=#b85450;" vertex="1" parent="accounting_lane">
          <mxGeometry x="30" y="50" width="110" height="50" as="geometry" />
        </mxCell>
        <mxCell id="accounting_contract" value="契約情報確認" style="rounded=1;whiteSpace=wrap;html=1;fillColor=#f8cecc;strokeColor=#b85450;" vertex="1" parent="accounting_lane">
          <mxGeometry x="180" y="50" width="110" height="50" as="geometry" />
        </mxCell>
        <mxCell id="accounting_timesheet" value="タイムシート確認" style="rounded=1;whiteSpace=wrap;html=1;fillColor=#f8cecc;strokeColor=#b85450;" vertex="1" parent="accounting_lane">
          <mxGeometry x="330" y="50" width="110" height="50" as="geometry" />
        </mxCell>
        <mxCell id="accounting_billing" value="請求情報確認" style="rounded=1;whiteSpace=wrap;html=1;fillColor=#f8cecc;strokeColor=#b85450;" vertex="1" parent="accounting_lane">
          <mxGeometry x="480" y="50" width="110" height="50" as="geometry" />
        </mxCell>
        <mxCell id="accounting_invoice" value="請求書生成" style="rounded=1;whiteSpace=wrap;html=1;fillColor=#f8cecc;strokeColor=#b85450;" vertex="1" parent="accounting_lane">
          <mxGeometry x="630" y="50" width="110" height="50" as="geometry" />
        </mxCell>
        <mxCell id="accounting_payment" value="入金処理" style="rounded=1;whiteSpace=wrap;html=1;fillColor=#f8cecc;strokeColor=#b85450;" vertex="1" parent="accounting_lane">
          <mxGeometry x="780" y="50" width="110" height="50" as="geometry" />
        </mxCell>
        <mxCell id="accounting_export" value="会計システム連携" style="rounded=1;whiteSpace=wrap;html=1;fillColor=#f8cecc;strokeColor=#b85450;" vertex="1" parent="accounting_lane">
          <mxGeometry x="930" y="50" width="110" height="50" as="geometry" />
        </mxCell>

        <!-- 経理担当フローの接続 -->
        <mxCell id="accounting_flow_1" value="" style="endArrow=classic;html=1;rounded=0;exitX=1;exitY=0.5;exitDx=0;exitDy=0;entryX=0;entryY=0.5;entryDx=0;entryDy=0;" edge="1" parent="accounting_lane" source="accounting_login" target="accounting_contract">
          <mxGeometry width="50" height="50" relative="1" as="geometry">
            <mxPoint x="140" y="160" as="sourcePoint" />
            <mxPoint x="190" y="110" as="targetPoint" />
          </mxGeometry>
        </mxCell>
        <mxCell id="accounting_flow_2" value="" style="endArrow=classic;html=1;rounded=0;exitX=1;exitY=0.5;exitDx=0;exitDy=0;entryX=0;entryY=0.5;entryDx=0;entryDy=0;" edge="1" parent="accounting_lane" source="accounting_contract" target="accounting_timesheet">
          <mxGeometry width="50" height="50" relative="1" as="geometry">
            <mxPoint x="290" y="160" as="sourcePoint" />
            <mxPoint x="340" y="110" as="targetPoint" />
          </mxGeometry>
        </mxCell>
        <mxCell id="accounting_flow_3" value="" style="endArrow=classic;html=1;rounded=0;exitX=1;exitY=0.5;exitDx=0;exitDy=0;entryX=0;entryY=0.5;entryDx=0;entryDy=0;" edge="1" parent="accounting_lane" source="accounting_timesheet" target="accounting_billing">
          <mxGeometry width="50" height="50" relative="1" as="geometry">
            <mxPoint x="440" y="160" as="sourcePoint" />
            <mxPoint x="490" y="110" as="targetPoint" />
          </mxGeometry>
        </mxCell>
        <mxCell id="accounting_flow_4" value="" style="endArrow=classic;html=1;rounded=0;exitX=1;exitY=0.5;exitDx=0;exitDy=0;entryX=0;entryY=0.5;entryDx=0;entryDy=0;" edge="1" parent="accounting_lane" source="accounting_billing" target="accounting_invoice">
          <mxGeometry width="50" height="50" relative="1" as="geometry">
            <mxPoint x="590" y="160" as="sourcePoint" />
            <mxPoint x="640" y="110" as="targetPoint" />
          </mxGeometry>
        </mxCell>
        <mxCell id="accounting_flow_5" value="" style="endArrow=classic;html=1;rounded=0;exitX=1;exitY=0.5;exitDx=0;exitDy=0;entryX=0;entryY=0.5;entryDx=0;entryDy=0;" edge="1" parent="accounting_lane" source="accounting_invoice" target="accounting_payment">
          <mxGeometry width="50" height="50" relative="1" as="geometry">
            <mxPoint x="740" y="160" as="sourcePoint" />
            <mxPoint x="790" y="110" as="targetPoint" />
          </mxGeometry>
        </mxCell>
        <mxCell id="accounting_flow_6" value="" style="endArrow=classic;html=1;rounded=0;exitX=1;exitY=0.5;exitDx=0;exitDy=0;entryX=0;entryY=0.5;entryDx=0;entryDy=0;" edge="1" parent="accounting_lane" source="accounting_payment" target="accounting_export">
          <mxGeometry width="50" height="50" relative="1" as="geometry">
            <mxPoint x="890" y="160" as="sourcePoint" />
            <mxPoint x="940" y="110" as="targetPoint" />
          </mxGeometry>
        </mxCell>

        <!-- 経営層フロー -->
        <mxCell id="management_flow" value="経営層の業務フロー" style="swimlane;childLayout=stackLayout;resizeParent=1;resizeParentMax=0;horizontal=1;startSize=30;horizontalStack=0;fillColor=#f5f5f5;strokeColor=#666666;fontColor=#333333;" vertex="1" parent="1">
          <mxGeometry x="40" y="480" width="1080" height="180" as="geometry" />
        </mxCell>
        <mxCell id="management_lane" value="経営層" style="swimlane;startSize=30;horizontal=0;fillColor=#f5f5f5;strokeColor=#666666;fontColor=#333333;" vertex="1" parent="management_flow">
          <mxGeometry y="30" width="1080" height="150" as="geometry" />
        </mxCell>

        <!-- 経営層の業務フロー -->
        <mxCell id="management_login" value="システムログイン" style="rounded=1;whiteSpace=wrap;html=1;fillColor=#f5f5f5;strokeColor=#666666;fontColor=#333333;" vertex="1" parent="management_lane">
          <mxGeometry x="30" y="50" width="110" height="50" as="geometry" />
        </mxCell>
        <mxCell id="management_dashboard" value="ダッシュボード閲覧" style="rounded=1;whiteSpace=wrap;html=1;fillColor=#f5f5f5;strokeColor=#666666;fontColor=#333333;" vertex="1" parent="management_lane">
          <mxGeometry x="180" y="50" width="110" height="50" as="geometry" />
        </mxCell>
        <mxCell id="management_sales" value="売上レポート確認" style="rounded=1;whiteSpace=wrap;html=1;fillColor=#f5f5f5;strokeColor=#666666;fontColor=#333333;" vertex="1" parent="management_lane">
          <mxGeometry x="330" y="50" width="110" height="50" as="geometry" />
        </mxCell>
        <mxCell id="management_resource" value="リソース稼働状況確認" style="rounded=1;whiteSpace=wrap;html=1;fillColor=#f5f5f5;strokeColor=#666666;fontColor=#333333;" vertex="1" parent="management_lane">
          <mxGeometry x="480" y="50" width="110" height="50" as="geometry" />
        </mxCell>
        <mxCell id="management_project" value="案件進捗状況確認" style="rounded=1;whiteSpace=wrap;html=1;fillColor=#f5f5f5;strokeColor=#666666;fontColor=#333333;" vertex="1" parent="management_lane">
          <mxGeometry x="630" y="50" width="110" height="50" as="geometry" />
        </mxCell>
        <mxCell id="management_forecast" value="売上予測確認" style="rounded=1;whiteSpace=wrap;html=1;fillColor=#f5f5f5;strokeColor=#666666;fontColor=#333333;" vertex="1" parent="management_lane">
          <mxGeometry x="780" y="50" width="110" height="50" as="geometry" />
        </mxCell>
        <mxCell id="management_export" value="レポートエクスポート" style="rounded=1;whiteSpace=wrap;html=1;fillColor=#f5f5f5;strokeColor=#666666;fontColor=#333333;" vertex="1" parent="management_lane">
          <mxGeometry x="930" y="50" width="110" height="50" as="geometry" />
        </mxCell>

        <!-- 経営層フローの接続 -->
        <mxCell id="management_flow_1" value="" style="endArrow=classic;html=1;rounded=0;exitX=1;exitY=0.5;exitDx=0;exitDy=0;entryX=0;entryY=0.5;entryDx=0;entryDy=0;" edge="1" parent="management_lane" source="management_login" target="management_dashboard">
          <mxGeometry width="50" height="50" relative="1" as="geometry">
            <mxPoint x="140" y="160" as="sourcePoint" />
            <mxPoint x="190" y="110" as="targetPoint" />
          </mxGeometry>
        </mxCell>
        <mxCell id="management_flow_2" value="" style="endArrow=classic;html=1;rounded=0;exitX=1;exitY=0.5;exitDx=0;exitDy=0;entryX=0;entryY=0.5;entryDx=0;entryDy=0;" edge="1" parent="management_lane" source="management_dashboard" target="management_sales">
          <mxGeometry width="50" height="50" relative="1" as="geometry">
            <mxPoint x="290" y="160" as="sourcePoint" />
            <mxPoint x="340" y="110" as="targetPoint" />
          </mxGeometry>
        </mxCell>
        <mxCell id="management_flow_3" value="" style="endArrow=classic;html=1;rounded=0;exitX=1;exitY=0.5;exitDx=0;exitDy=0;entryX=0;entryY=0.5;entryDx=0;entryDy=0;" edge="1" parent="management_lane" source="management_sales" target="management_resource">
          <mxGeometry width="50" height="50" relative="1" as="geometry">
            <mxPoint x="440" y="160" as="sourcePoint" />
            <mxPoint x="490" y="110" as="targetPoint" />
          </mxGeometry>
        </mxCell>
        <mxCell id="management_flow_4" value="" style="endArrow=classic;html=1;rounded=0;exitX=1;exitY=0.5;exitDx=0;exitDy=0;entryX=0;entryY=0.5;entryDx=0;entryDy=0;" edge="1" parent="management_lane" source="management_resource" target="management_project">
          <mxGeometry width="50" height="50" relative="1" as="geometry">
            <mxPoint x="590" y="160" as="sourcePoint" />
            <mxPoint x="640" y="110" as="targetPoint" />
          </mxGeometry>
        </mxCell>
        <mxCell id="management_flow_5" value="" style="endArrow=classic;html=1;rounded=0;exitX=1;exitY=0.5;exitDx=0;exitDy=0;entryX=0;entryY=0.5;entryDx=0;entryDy=0;" edge="1" parent="management_lane" source="management_project" target="management_forecast">
          <mxGeometry width="50" height="50" relative="1" as="geometry">
            <mxPoint x="740" y="160" as="sourcePoint" />
            <mxPoint x="790" y="110" as="targetPoint" />
          </mxGeometry>
        </mxCell>
        <mxCell id="management_flow_6" value="" style="endArrow=classic;html=1;rounded=0;exitX=1;exitY=0.5;exitDx=0;exitDy=0;entryX=0;entryY=0.5;entryDx=0;entryDy=0;" edge="1" parent="management_lane" source="management_forecast" target="management_export">
          <mxGeometry width="50" height="50" relative="1" as="geometry">
            <mxPoint x="890" y="160" as="sourcePoint" />
            <mxPoint x="940" y="110" as="targetPoint" />
          </mxGeometry>
        </mxCell>
      </root>
    </mxGraphModel>
  </diagram>
</mxfile>